<mxfile host="65bd71144e">
    <diagram name="Page-1" id="c7558073-3199-34d8-9f00-42111426c3f3">
        <mxGraphModel dx="1599" dy="887" grid="1" gridSize="10" guides="1" tooltips="1" connect="1" arrows="1" fold="1" page="1" pageScale="1" pageWidth="826" pageHeight="1169" background="none" math="0" shadow="0">
            <root>
                <mxCell id="0"/>
                <mxCell id="1" parent="0"/>
                <mxCell id="2" value="&lt;p style=&quot;margin: 4px 0px 0px ; text-align: center&quot;&gt;onCreate()&lt;/p&gt;" style="verticalAlign=middle;align=center;overflow=fill;fontSize=12;fontFamily=Helvetica;html=1;rounded=1;fontStyle=1;strokeWidth=3;fillColor=#E6FFCC" parent="1" vertex="1">
                    <mxGeometry x="343.5" y="170" width="110" height="29" as="geometry"/>
                </mxCell>
                <mxCell id="3" value="Launch&#10;Activity" style="whiteSpace=wrap;align=center;verticalAlign=middle;fontStyle=1;strokeWidth=3;fillColor=#FFFFCC" parent="1" vertex="1">
                    <mxGeometry x="353.5" y="60" width="90" height="60" as="geometry"/>
                </mxCell>
                <mxCell id="5" value="Activity Running" style="shape=process;whiteSpace=wrap;align=center;verticalAlign=middle;size=0.0475;fontStyle=1;strokeWidth=3;fillColor=#FFCCCC" parent="1" vertex="1">
                    <mxGeometry x="273.5" y="370" width="250" height="50" as="geometry"/>
                </mxCell>
                <mxCell id="36" value="" style="edgeStyle=none;noEdgeStyle=1;strokeColor=#990000;strokeWidth=2" parent="1" source="3" target="2" edge="1">
                    <mxGeometry width="100" height="100" relative="1" as="geometry">
                        <mxPoint x="20" y="250" as="sourcePoint"/>
                        <mxPoint x="120" y="150" as="targetPoint"/>
                    </mxGeometry>
                </mxCell>
                <mxCell id="DUcxa9i5OVskO4iPHdod-96" value="&lt;p style=&quot;margin: 4px 0px 0px ; text-align: center&quot;&gt;onStart()&lt;/p&gt;" style="verticalAlign=middle;align=center;overflow=fill;fontSize=12;fontFamily=Helvetica;html=1;rounded=1;fontStyle=1;strokeWidth=3;fillColor=#E6FFCC" parent="1" vertex="1">
                    <mxGeometry x="343.5" y="230" width="110" height="29" as="geometry"/>
                </mxCell>
                <mxCell id="DUcxa9i5OVskO4iPHdod-97" value="" style="edgeStyle=none;noEdgeStyle=1;strokeColor=#990000;strokeWidth=2;exitX=0.5;exitY=1;exitDx=0;exitDy=0;entryX=0.5;entryY=0;entryDx=0;entryDy=0;" parent="1" source="2" target="DUcxa9i5OVskO4iPHdod-96" edge="1">
                    <mxGeometry width="100" height="100" relative="1" as="geometry">
                        <mxPoint x="408.5" y="130" as="sourcePoint"/>
                        <mxPoint x="408.5" y="191" as="targetPoint"/>
                    </mxGeometry>
                </mxCell>
                <mxCell id="DUcxa9i5OVskO4iPHdod-98" value="&lt;p style=&quot;margin: 4px 0px 0px ; text-align: center&quot;&gt;onResume()&lt;/p&gt;&lt;p style=&quot;margin: 0px ; margin-top: 4px ; text-align: center ; text-decoration: underline&quot;&gt;&lt;br&gt;&lt;/p&gt;" style="verticalAlign=middle;align=center;overflow=fill;fontSize=12;fontFamily=Helvetica;html=1;rounded=1;fontStyle=1;strokeWidth=3;fillColor=#E6FFCC" parent="1" vertex="1">
                    <mxGeometry x="343.5" y="300" width="110" height="29" as="geometry"/>
                </mxCell>
                <mxCell id="DUcxa9i5OVskO4iPHdod-99" value="" style="edgeStyle=none;noEdgeStyle=1;strokeColor=#990000;strokeWidth=2;exitX=0.5;exitY=1;exitDx=0;exitDy=0;entryX=0.5;entryY=0;entryDx=0;entryDy=0;" parent="1" source="DUcxa9i5OVskO4iPHdod-96" target="DUcxa9i5OVskO4iPHdod-98" edge="1">
                    <mxGeometry width="100" height="100" relative="1" as="geometry">
                        <mxPoint x="398.5" y="280" as="sourcePoint"/>
                        <mxPoint x="408.5" y="261" as="targetPoint"/>
                    </mxGeometry>
                </mxCell>
                <mxCell id="DUcxa9i5OVskO4iPHdod-101" value="" style="edgeStyle=none;noEdgeStyle=1;strokeColor=#990000;strokeWidth=2;exitX=0.5;exitY=1;exitDx=0;exitDy=0;" parent="1" source="DUcxa9i5OVskO4iPHdod-98" target="5" edge="1">
                    <mxGeometry width="100" height="100" relative="1" as="geometry">
                        <mxPoint x="408.5" y="220" as="sourcePoint"/>
                        <mxPoint x="408.5" y="252" as="targetPoint"/>
                    </mxGeometry>
                </mxCell>
                <mxCell id="DUcxa9i5OVskO4iPHdod-103" value="&lt;p style=&quot;margin: 4px 0px 0px ; text-align: center&quot;&gt;onPause()&lt;/p&gt;" style="verticalAlign=middle;align=center;overflow=fill;fontSize=12;fontFamily=Helvetica;html=1;rounded=1;fontStyle=1;strokeWidth=3;fillColor=#E6FFCC" parent="1" vertex="1">
                    <mxGeometry x="343.5" y="470" width="110" height="29" as="geometry"/>
                </mxCell>
                <mxCell id="96" value="&#10;" style="text;spacingTop=-5;align=center" parent="1" vertex="1">
                    <mxGeometry x="253.5" y="430" width="20" height="20" as="geometry"/>
                </mxCell>
                <mxCell id="DUcxa9i5OVskO4iPHdod-118" value="&lt;p style=&quot;margin: 4px 0px 0px ; text-align: center&quot;&gt;onStop()&lt;/p&gt;&lt;p style=&quot;margin: 4px 0px 0px ; text-align: center&quot;&gt;&lt;br&gt;&lt;/p&gt;" style="verticalAlign=middle;align=center;overflow=fill;fontSize=12;fontFamily=Helvetica;html=1;rounded=1;fontStyle=1;strokeWidth=3;fillColor=#E6FFCC" parent="1" vertex="1">
                    <mxGeometry x="343.5" y="555.5" width="110" height="29" as="geometry"/>
                </mxCell>
                <mxCell id="DUcxa9i5OVskO4iPHdod-120" value="" style="endArrow=classic;html=1;rounded=1;exitX=0.5;exitY=1;exitDx=0;exitDy=0;entryX=0.5;entryY=0;entryDx=0;entryDy=0;strokeColor=#990000;strokeWidth=2;edgeStyle=elbowEdgeStyle;" parent="1" source="5" target="DUcxa9i5OVskO4iPHdod-103" edge="1">
                    <mxGeometry relative="1" as="geometry">
                        <mxPoint x="370" y="430" as="sourcePoint"/>
                        <mxPoint x="470" y="430" as="targetPoint"/>
                    </mxGeometry>
                </mxCell>
                <mxCell id="DUcxa9i5OVskO4iPHdod-121" value="&lt;span style=&quot;font-size: 12px ; background-color: rgb(248 , 249 , 250)&quot;&gt;Another Activity&lt;/span&gt;&lt;br style=&quot;padding: 0px ; margin: 0px ; font-size: 12px ; background-color: rgb(248 , 249 , 250)&quot;&gt;&lt;span style=&quot;font-size: 12px ; background-color: rgb(248 , 249 , 250)&quot;&gt;come into foreground&lt;/span&gt;" style="edgeLabel;resizable=0;html=1;align=center;verticalAlign=middle;" parent="DUcxa9i5OVskO4iPHdod-120" connectable="0" vertex="1">
                    <mxGeometry relative="1" as="geometry">
                        <mxPoint y="-5" as="offset"/>
                    </mxGeometry>
                </mxCell>
                <mxCell id="DUcxa9i5OVskO4iPHdod-122" value="" style="endArrow=classic;html=1;rounded=1;strokeColor=#990000;strokeWidth=2;edgeStyle=elbowEdgeStyle;entryX=1;entryY=0.5;entryDx=0;entryDy=0;exitX=1;exitY=0.5;exitDx=0;exitDy=0;" parent="1" source="DUcxa9i5OVskO4iPHdod-103" target="DUcxa9i5OVskO4iPHdod-98" edge="1">
                    <mxGeometry relative="1" as="geometry">
                        <mxPoint x="490" y="490" as="sourcePoint"/>
                        <mxPoint x="470" y="315" as="targetPoint"/>
                        <Array as="points">
                            <mxPoint x="590" y="410"/>
                        </Array>
                    </mxGeometry>
                </mxCell>
                <mxCell id="DUcxa9i5OVskO4iPHdod-123" value="User retures to &lt;br&gt;the activity" style="edgeLabel;resizable=0;html=1;align=center;verticalAlign=bottom;horizontal=1;spacingTop=0;spacing=0;spacingBottom=0;" parent="DUcxa9i5OVskO4iPHdod-122" connectable="0" vertex="1">
                    <mxGeometry relative="1" as="geometry">
                        <mxPoint y="16" as="offset"/>
                    </mxGeometry>
                </mxCell>
                <mxCell id="DUcxa9i5OVskO4iPHdod-127" value="" style="endArrow=classic;html=1;rounded=1;exitX=1;exitY=0.5;exitDx=0;exitDy=0;entryX=1;entryY=0.5;entryDx=0;entryDy=0;strokeColor=#990000;strokeWidth=2;edgeStyle=elbowEdgeStyle;" parent="1" source="DUcxa9i5OVskO4iPHdod-118" target="DUcxa9i5OVskO4iPHdod-137" edge="1">
                    <mxGeometry relative="1" as="geometry">
                        <mxPoint x="463.5" y="504.5" as="sourcePoint"/>
                        <mxPoint x="650" y="255.5" as="targetPoint"/>
                        <Array as="points">
                            <mxPoint x="660" y="410"/>
                            <mxPoint x="720" y="360"/>
                            <mxPoint x="620" y="560"/>
                        </Array>
                    </mxGeometry>
                </mxCell>
                <mxCell id="DUcxa9i5OVskO4iPHdod-128" value="User navigates&lt;br&gt;&amp;nbsp;to the activity" style="edgeLabel;resizable=0;html=1;align=center;verticalAlign=bottom;horizontal=1;spacingTop=0;spacing=0;spacingBottom=0;" parent="DUcxa9i5OVskO4iPHdod-127" connectable="0" vertex="1">
                    <mxGeometry relative="1" as="geometry">
                        <mxPoint x="-10" y="-33" as="offset"/>
                    </mxGeometry>
                </mxCell>
                <mxCell id="DUcxa9i5OVskO4iPHdod-133" value="" style="endArrow=classic;html=1;rounded=1;exitX=0.5;exitY=1;exitDx=0;exitDy=0;entryX=0.5;entryY=0;entryDx=0;entryDy=0;strokeColor=#990000;strokeWidth=2;edgeStyle=elbowEdgeStyle;" parent="1" source="DUcxa9i5OVskO4iPHdod-118" target="DUcxa9i5OVskO4iPHdod-135" edge="1">
                    <mxGeometry relative="1" as="geometry">
                        <mxPoint x="398.08" y="600" as="sourcePoint"/>
                        <mxPoint x="398.08" y="660" as="targetPoint"/>
                    </mxGeometry>
                </mxCell>
                <mxCell id="DUcxa9i5OVskO4iPHdod-134" value="&lt;span style=&quot;background-color: rgb(248 , 249 , 250)&quot;&gt;Activity is finishing or &lt;br&gt;destroyed by system&lt;/span&gt;" style="edgeLabel;resizable=0;html=1;align=center;verticalAlign=middle;" parent="DUcxa9i5OVskO4iPHdod-133" connectable="0" vertex="1">
                    <mxGeometry relative="1" as="geometry"/>
                </mxCell>
                <mxCell id="DUcxa9i5OVskO4iPHdod-135" value="&lt;p style=&quot;margin: 4px 0px 0px ; text-align: center&quot;&gt;onDestroy()&lt;/p&gt;&lt;p style=&quot;margin: 4px 0px 0px ; text-align: center&quot;&gt;&lt;br&gt;&lt;/p&gt;" style="verticalAlign=middle;align=center;overflow=fill;fontSize=12;fontFamily=Helvetica;html=1;rounded=1;fontStyle=1;strokeWidth=3;fillColor=#E6FFCC" parent="1" vertex="1">
                    <mxGeometry x="343.5" y="640" width="110" height="29" as="geometry"/>
                </mxCell>
                <mxCell id="DUcxa9i5OVskO4iPHdod-138" value="" style="edgeStyle=elbowEdgeStyle;rounded=1;orthogonalLoop=1;jettySize=auto;html=1;strokeColor=#990000;strokeWidth=2;" parent="1" source="DUcxa9i5OVskO4iPHdod-137" target="DUcxa9i5OVskO4iPHdod-96" edge="1">
                    <mxGeometry relative="1" as="geometry"/>
                </mxCell>
                <mxCell id="DUcxa9i5OVskO4iPHdod-137" value="&lt;p style=&quot;margin: 4px 0px 0px ; text-align: center&quot;&gt;onRestart()&lt;/p&gt;" style="verticalAlign=middle;align=center;overflow=fill;fontSize=12;fontFamily=Helvetica;html=1;rounded=1;fontStyle=1;strokeWidth=3;fillColor=#E6FFCC" parent="1" vertex="1">
                    <mxGeometry x="510" y="230" width="110" height="29" as="geometry"/>
                </mxCell>
                <mxCell id="DUcxa9i5OVskO4iPHdod-139" style="edgeStyle=elbowEdgeStyle;rounded=1;orthogonalLoop=1;jettySize=auto;html=1;exitX=0.5;exitY=1;exitDx=0;exitDy=0;strokeColor=#990000;strokeWidth=2;" parent="1" source="DUcxa9i5OVskO4iPHdod-137" target="DUcxa9i5OVskO4iPHdod-137" edge="1">
                    <mxGeometry relative="1" as="geometry"/>
                </mxCell>
                <mxCell id="DUcxa9i5OVskO4iPHdod-140" value="App process&#10;killed" style="whiteSpace=wrap;align=center;verticalAlign=middle;fontStyle=1;strokeWidth=3;fillColor=#FFFFCC" parent="1" vertex="1">
                    <mxGeometry x="110" y="310" width="90" height="60" as="geometry"/>
                </mxCell>
                <mxCell id="DUcxa9i5OVskO4iPHdod-141" value="" style="endArrow=classic;html=1;rounded=1;exitX=0;exitY=0.5;exitDx=0;exitDy=0;strokeColor=#990000;strokeWidth=2;edgeStyle=orthogonalEdgeStyle;entryX=0.5;entryY=1;entryDx=0;entryDy=0;" parent="1" source="DUcxa9i5OVskO4iPHdod-118" target="DUcxa9i5OVskO4iPHdod-140" edge="1">
                    <mxGeometry relative="1" as="geometry">
                        <mxPoint x="51.75" y="758.0000000000002" as="sourcePoint"/>
                        <mxPoint x="150" y="430" as="targetPoint"/>
                    </mxGeometry>
                </mxCell>
                <mxCell id="DUcxa9i5OVskO4iPHdod-142" value="App with higher priority&lt;br&gt;needs memory" style="edgeLabel;resizable=0;html=1;align=center;verticalAlign=bottom;horizontal=1;spacingTop=0;spacing=0;spacingBottom=0;" parent="DUcxa9i5OVskO4iPHdod-141" connectable="0" vertex="1">
                    <mxGeometry relative="1" as="geometry">
                        <mxPoint y="-65" as="offset"/>
                    </mxGeometry>
                </mxCell>
                <mxCell id="DUcxa9i5OVskO4iPHdod-143" value="" style="endArrow=none;html=1;rounded=1;strokeColor=#990000;strokeWidth=2;entryX=0;entryY=0.5;entryDx=0;entryDy=0;" parent="1" target="DUcxa9i5OVskO4iPHdod-103" edge="1">
                    <mxGeometry width="50" height="50" relative="1" as="geometry">
                        <mxPoint x="220" y="485" as="sourcePoint"/>
                        <mxPoint x="320" y="494" as="targetPoint"/>
                    </mxGeometry>
                </mxCell>
                <mxCell id="DUcxa9i5OVskO4iPHdod-144" value="" style="endArrow=classic;html=1;rounded=1;entryX=0;entryY=0.5;entryDx=0;entryDy=0;strokeColor=#990000;strokeWidth=2;edgeStyle=elbowEdgeStyle;exitX=0.5;exitY=0;exitDx=0;exitDy=0;" parent="1" source="DUcxa9i5OVskO4iPHdod-140" target="2" edge="1">
                    <mxGeometry relative="1" as="geometry">
                        <mxPoint x="130" y="260" as="sourcePoint"/>
                        <mxPoint x="136.5" y="112.00000000000011" as="targetPoint"/>
                        <Array as="points">
                            <mxPoint x="155" y="200"/>
                            <mxPoint x="176.5" y="265.5"/>
                            <mxPoint x="236.5" y="215.5"/>
                            <mxPoint x="136.5" y="415.5"/>
                        </Array>
                    </mxGeometry>
                </mxCell>
                <mxCell id="DUcxa9i5OVskO4iPHdod-145" value="User navigates&lt;br&gt;&amp;nbsp;to the activity" style="edgeLabel;resizable=0;html=1;align=center;verticalAlign=bottom;horizontal=1;spacingTop=0;spacing=0;spacingBottom=0;" parent="DUcxa9i5OVskO4iPHdod-144" connectable="0" vertex="1">
                    <mxGeometry relative="1" as="geometry">
                        <mxPoint x="-37" y="76" as="offset"/>
                    </mxGeometry>
                </mxCell>
                <mxCell id="DUcxa9i5OVskO4iPHdod-146" value="" style="endArrow=classic;html=1;rounded=1;entryX=0.5;entryY=0;entryDx=0;entryDy=0;strokeColor=#990000;strokeWidth=2;exitX=0.5;exitY=1;exitDx=0;exitDy=0;" parent="1" source="DUcxa9i5OVskO4iPHdod-103" target="DUcxa9i5OVskO4iPHdod-118" edge="1">
                    <mxGeometry relative="1" as="geometry">
                        <mxPoint x="500" y="500" as="sourcePoint"/>
                        <mxPoint x="500" y="560" as="targetPoint"/>
                    </mxGeometry>
                </mxCell>
                <mxCell id="DUcxa9i5OVskO4iPHdod-147" value="&lt;span style=&quot;background-color: rgb(248 , 249 , 250)&quot;&gt;the activity no &lt;br&gt;longer visible&lt;br&gt;&lt;/span&gt;" style="edgeLabel;resizable=0;html=1;align=center;verticalAlign=middle;" parent="DUcxa9i5OVskO4iPHdod-146" connectable="0" vertex="1">
                    <mxGeometry relative="1" as="geometry"/>
                </mxCell>
                <mxCell id="DUcxa9i5OVskO4iPHdod-148" value="Activity&#10;Shutdown" style="whiteSpace=wrap;align=center;verticalAlign=middle;fontStyle=1;strokeWidth=3;fillColor=#FFFFCC" parent="1" vertex="1">
                    <mxGeometry x="353.5" y="720" width="90" height="60" as="geometry"/>
                </mxCell>
                <mxCell id="DUcxa9i5OVskO4iPHdod-150" value="" style="edgeStyle=none;noEdgeStyle=1;strokeColor=#990000;strokeWidth=2;exitX=0.5;exitY=1;exitDx=0;exitDy=0;" parent="1" source="DUcxa9i5OVskO4iPHdod-135" target="DUcxa9i5OVskO4iPHdod-148" edge="1">
                    <mxGeometry width="100" height="100" relative="1" as="geometry">
                        <mxPoint x="751.5" y="520" as="sourcePoint"/>
                        <mxPoint x="620" y="670" as="targetPoint"/>
                    </mxGeometry>
                </mxCell>
                <mxCell id="97" value="&lt;p style=&quot;margin: 4px 0px 0px ; text-align: center&quot;&gt;Click Back Button&lt;/p&gt;" style="verticalAlign=middle;align=center;overflow=fill;fontSize=12;fontFamily=Helvetica;html=1;rounded=1;fontStyle=1;strokeWidth=3;fillColor=#B8D9FF;labelBackgroundColor=none;strokeColor=#000000;" vertex="1" parent="1">
                    <mxGeometry x="273.5" y="660" width="110" height="29" as="geometry"/>
                </mxCell>
                <mxCell id="99" value="&lt;p style=&quot;margin: 4px 0px 0px ; text-align: center&quot;&gt;Click Home Button&lt;br&gt;&lt;/p&gt;" style="verticalAlign=middle;align=center;overflow=fill;fontSize=12;fontFamily=Helvetica;html=1;rounded=1;fontStyle=1;strokeWidth=3;fillColor=#B8D9FF;labelBackgroundColor=none;strokeColor=#000000;" vertex="1" parent="1">
                    <mxGeometry x="430" y="570" width="110" height="29" as="geometry"/>
                </mxCell>
                <mxCell id="101" value="&lt;p style=&quot;margin: 4px 0px 0px ; text-align: center&quot;&gt;Use Navigate&amp;nbsp;&lt;/p&gt;&lt;p style=&quot;margin: 4px 0px 0px ; text-align: center&quot;&gt;Button&lt;br&gt;&lt;/p&gt;" style="verticalAlign=middle;align=center;overflow=fill;fontSize=12;fontFamily=Helvetica;html=1;rounded=1;fontStyle=1;strokeWidth=3;fillColor=#B8D9FF;labelBackgroundColor=none;strokeColor=#000000;" vertex="1" parent="1">
                    <mxGeometry x="600" y="199" width="110" height="40" as="geometry"/>
                </mxCell>
            </root>
        </mxGraphModel>
    </diagram>
</mxfile>